HIERARCHY
ROOT Hips
{
  OFFSET 1.44925e-005 102.336 -0.101585
  CHANNELS 6 Xposition Yposition Zposition Zrotation Xrotation Yrotation
  JOINT RightUpLeg
  {
    OFFSET -8.9458 -8.66707 0.101652
    CHANNELS 3 Zrotation Xrotation Yrotation
    JOINT RightLeg
    {
      OFFSET 0 -44.4227 1.3727
      CHANNELS 3 Zrotation Xrotation Yrotation
      JOINT RightFoot
      {
        OFFSET 0.253549 -42.0924 -1.46059
        CHANNELS 3 Zrotation Xrotation Yrotation
        JOINT RightToes
        {
          OFFSET 0.04 -4.41509 8.4991
          CHANNELS 3 Zrotation Xrotation Yrotation
          End Site
          {
            OFFSET -0.08 -0.137448 9.77979
          }
        }
      }
    }
  }
  JOINT Spine
  {
    OFFSET 0 11.8905 0
    CHANNELS 3 Zrotation Xrotation Yrotation
    JOINT Spine1
    {
      OFFSET 0 25.6574 0.127663
      CHANNELS 3 Zrotation Xrotation Yrotation
      JOINT HEad
      {
        OFFSET 0 8.73416 0.011341
        CHANNELS 3 Zrotation Xrotation Yrotation
        End Site
        {
          OFFSET -0.29 12.7742 2.51395
        }
      }
      JOINT LeftShoulder1
      {
        OFFSET 8.99 -0.362252 -0.22
        CHANNELS 3 Zrotation Xrotation Yrotation
        JOINT LeftArm
        {
          OFFSET 10.2827 -0.00337999 0.322123
          CHANNELS 3 Zrotation Xrotation Yrotation
          JOINT LeftForeArm
          {
            OFFSET 26.2597 0.099144 -1.42434
            CHANNELS 3 Zrotation Xrotation Yrotation
            JOINT LeftHand
            {
              OFFSET 22.0902 0.085362 1.02216
              CHANNELS 3 Zrotation Xrotation Yrotation
              End Site
              {
                OFFSET 13.419 -0.6 1.50291
              }
            }
          }
        }
      }
      JOINT RightShoulder
      {
        OFFSET -8.99 -0.362252 -0.22
        CHANNELS 3 Zrotation Xrotation Yrotation
        JOINT RightArm
        {
          OFFSET -10.2827 -0.00338 0.322123
          CHANNELS 3 Zrotation Xrotation Yrotation
          JOINT RightForeArm
          {
            OFFSET -26.364 0.099144 -1.42434
            CHANNELS 3 Zrotation Xrotation Yrotation
            JOINT RightHand
            {
              OFFSET -22.0324 0.085362 1.02216
              CHANNELS 3 Zrotation Xrotation Yrotation
              End Site
              {
                OFFSET -13.3284 -0.6 1.50291
              }
            }
          }
        }
      }
    }
  }
  JOINT LeftUpLeg
  {
    OFFSET 8.9458 -8.66707 0.101652
    CHANNELS 3 Zrotation Xrotation Yrotation
    JOINT LeftLeg
    {
      OFFSET 0 -44.4227 1.3727
      CHANNELS 3 Zrotation Xrotation Yrotation
      JOINT LeftFoot
      {
        OFFSET -0.253549 -42.0924 -1.46059
        CHANNELS 3 Zrotation Xrotation Yrotation
        JOINT LeftToes
        {
          OFFSET -0.04 -4.41509 8.4991
          CHANNELS 3 Zrotation Xrotation Yrotation
          End Site
          {
            OFFSET 0.08 -0.047448 9.77979
          }
        }
      }
    }
  }
}
MOTION
Frames:	16
Frame Time:	0.0333333
-2.73566 105.794 16.981 1.07478 6.43578 -178.388 -9.54224 10.302 -8.70924 1.27596 8.64088 -16.3369 13.4619 -7.13494 -0.236298 0.0462048 0.000530889 0.662642 1.99834 -6.29032 0.904191 -0.593738 11.0095 0.848989 -1.83178 -4.72092 -2.72758 -28.3827 1.76862 -1.62181 -46.6555 -22.6503 -20.6867 -10.1897 39.2402 1.19126 1.93557 9.8396 0.395096 38.3202 5.15154 7.55736 27.7102 -38.9129 -0.851659 3.71502 25.1316 5.8178 -25.7292 8.42641 1.33825 14.5657 6.41429 9.36389 -2.68837 10.7995 5.48849 -14.1022 -5.41489 0.295961 -1.39529e-009 8.75238e-006 -1.47271e-008 
-2.73566 105.813 17.0123 1.07267 6.38886 -178.386 -9.54834 10.2535 -8.71575 1.2952 8.58604 -16.3083 13.3501 -7.14995 -0.236306 0.0462048 0.000530889 0.662642 2.09639 -6.35042 0.888361 -0.703335 11.0391 0.843749 -1.79822 -4.89395 -2.67427 -28.3582 1.77026 -1.63058 -46.7827 -22.6249 -20.7478 -10.2352 39.3624 1.33459 2.1905 9.82255 -0.191551 38.3772 5.15768 7.55636 27.7658 -38.8687 -0.821958 3.73469 25.2322 5.69546 -25.8053 8.44883 1.21439 14.56 6.32109 9.394 -2.70919 10.8321 5.48398 -13.8384 -5.42661 0.289221 -1.39529e-009 8.75238e-006 -1.47271e-008 
-2.73566 105.834 17.0713 1.06141 6.31916 -178.36 -9.55974 10.1709 -8.7315 1.32089 8.53564 -16.3268 13.2099 -7.14526 -0.236304 0.0462048 0.000530889 0.662642 2.14928 -6.37508 0.840832 -0.739142 10.9893 0.787843 -1.81122 -5.09809 -2.61827 -28.3672 1.77976 -1.6582 -46.8904 -22.5363 -20.7588 -10.3453 39.6332 1.52061 2.54041 9.79375 -1.1102 38.443 5.17653 7.58133 27.8262 -38.8306 -0.903893 3.75367 25.1813 5.67349 -25.6959 8.53544 0.845145 14.5438 6.15831 9.42163 -2.7275 10.9055 5.47257 -13.5069 -5.45461 0.280282 -1.39529e-009 8.75238e-006 -1.47271e-008 
-2.73488 105.842 17.1323 1.04574 6.28754 -178.312 -9.57494 10.1095 -8.75866 1.34561 8.54559 -16.3747 13.1369 -7.12837 -0.236295 0.0462048 0.000530889 0.662642 2.05312 -6.30792 0.775319 -0.563775 10.8696 0.678651 -1.87779 -5.22453 -2.59299 -28.4345 1.7988 -1.70343 -46.8835 -22.3809 -20.6854 -10.5093 39.6916 1.67577 2.65293 9.779 -1.70881 38.4539 5.20268 7.63667 27.8824 -38.8296 -1.07994 3.76244 24.916 5.76845 -25.3635 8.62841 0.499126 14.5275 6.04171 9.4229 -2.72747 10.9594 5.45091 -13.3577 -5.45814 0.277002 -1.39529e-009 8.75238e-006 -1.47271e-008 
-2.73085 105.841 17.1805 1.03445 6.31235 -178.267 -9.59339 10.0953 -8.79255 1.37181 8.59682 -16.3866 13.1181 -7.12727 -0.236294 0.0462048 0.000530889 0.662642 1.90811 -6.20427 0.724434 -0.322856 10.8029 0.578948 -1.90185 -5.34863 -2.6045 -28.4923 1.81775 -1.74966 -46.8575 -22.2264 -20.6316 -10.6534 39.4193 1.7845 2.29597 9.80053 -1.70181 38.4529 5.22654 7.68999 27.9689 -38.8822 -1.14981 3.73485 24.8406 5.7101 -25.13 8.64757 0.467335 14.5235 6.01953 9.41341 -2.72056 10.9684 5.41694 -13.3713 -5.42857 0.275628 -1.39529e-009 8.75238e-006 -1.47271e-008 
-2.72365 105.841 17.2168 1.03172 6.3618 -178.252 -9.60492 10.1115 -8.81915 1.39523 8.63521 -16.3578 13.102 -7.1402 -0.236301 0.0462048 0.000530889 0.662642 1.856 -6.13346 0.706359 -0.222667 10.8395 0.542077 -1.8311 -5.54585 -2.6583 -28.4773 1.82609 -1.77596 -46.9109 -22.141 -20.6765 -10.7093 39.1542 1.82221 1.62047 9.84396 -1.30639 38.5197 5.24606 7.71591 28.062 -38.9808 -1.05047 3.65906 25.2112 5.4081 -25.1679 8.6146 0.613073 14.5336 6.04706 9.41582 -2.72161 10.9641 5.38043 -13.4074 -5.40381 0.27575 -1.39529e-009 8.75238e-006 -1.47271e-008 
-2.71471 105.841 17.2441 1.04135 6.39744 -178.259 -9.59479 10.1343 -8.82181 1.40543 8.62841 -16.3438 13.0767 -7.1404 -0.236301 0.0462048 0.000530889 0.662642 1.89134 -6.10069 0.708926 -0.246702 10.8934 0.549682 -1.71493 -5.75454 -2.73012 -28.4286 1.82264 -1.77323 -46.988 -22.0949 -20.7761 -10.7233 39.1346 1.81664 1.22673 9.86748 -1.00092 38.6414 5.264 7.72394 28.083 -39.0663 -0.97737 3.58893 25.6686 5.11079 -25.2208 8.61715 0.587539 14.5564 6.06994 9.43374 -2.72959 10.9643 5.35171 -13.4109 -5.40108 0.276948 -1.39529e-009 8.75238e-006 -1.47271e-008 
-2.70539 105.841 17.259 1.06578 6.40418 -178.26 -9.55216 10.1496 -8.79285 1.39645 8.58867 -16.3831 13.0644 -7.11705 -0.236289 0.0462048 0.000530889 0.662642 1.91324 -6.0825 0.710398 -0.239587 10.8726 0.550198 -1.61235 -5.84806 -2.76966 -28.4271 1.81386 -1.74807 -46.971 -22.0183 -20.8437 -10.7965 39.2059 1.85977 1.6165 9.84495 -1.12338 38.7358 5.27953 7.73366 28.0141 -39.0801 -1.09178 3.58053 25.7355 5.00035 -25.035 8.66845 0.391921 14.5925 6.07306 9.45741 -2.73524 10.9546 5.32728 -13.4112 -5.39867 0.278785 -1.39529e-009 8.75238e-006 -1.47271e-008 
-2.69582 105.841 17.2609 1.09439 6.38774 -178.259 -9.49528 10.1428 -8.74367 1.37113 8.55525 -16.4453 13.0735 -7.0897 -0.236275 0.0462048 0.000530889 0.662642 1.8973 -6.08148 0.712782 -0.181227 10.7943 0.53626 -1.53643 -5.77946 -2.76409 -28.4791 1.8048 -1.71419 -46.8594 -21.9406 -20.8644 -10.9167 39.2708 1.97186 2.50598 9.79001 -1.53976 38.7735 5.28926 7.74532 27.9391 -39.0235 -1.28479 3.63471 25.4804 4.91849 -24.8072 8.69296 0.331796 14.6308 6.06372 9.47827 -2.73795 10.9349 5.30948 -13.4173 -5.38719 0.28083 -1.39529e-009 8.75238e-006 -1.47271e-008 
-2.68726 105.841 17.2582 1.10809 6.37037 -178.291 -9.46473 10.1121 -8.70128 1.33922 8.55931 -16.4623 13.0918 -7.07986 -0.23627 0.0462048 0.000530889 0.662642 1.89792 -6.1037 0.719493 -0.176654 10.7401 0.540729 -1.50349 -5.60616 -2.7483 -28.527 1.79767 -1.6866 -46.7551 -21.9631 -20.8776 -10.9613 39.5234 2.04086 3.09236 9.75094 -1.77955 38.7898 5.2929 7.74913 27.9239 -38.929 -1.38142 3.71167 25.29 4.71801 -24.8567 8.65591 0.496133 14.6481 6.0632 9.49056 -2.74381 10.925 5.32363 -13.4198 -5.38359 0.282663 -1.39529e-009 8.75238e-006 -1.47271e-008 
-2.68275 105.842 17.2542 1.10343 6.38068 -178.364 -9.47579 10.0877 -8.68727 1.31521 8.59681 -16.4103 13.1076 -7.08591 -0.236273 0.0462048 0.000530889 0.662642 1.92861 -6.12323 0.734239 -0.236639 10.7466 0.567017 -1.53696 -5.43105 -2.73523 -28.5394 1.79699 -1.68281 -46.7124 -22.0924 -20.8931 -10.8838 39.9921 1.98836 3.05619 9.75572 -1.62283 38.806 5.29409 7.74752 27.919 -38.8115 -1.42192 3.78114 25.2785 4.5973 -25.0649 8.61928 0.61755 14.64 6.09761 9.49216 -2.75246 10.9293 5.37848 -13.4173 -5.39269 0.28386 -1.39529e-009 8.75238e-006 -1.47271e-008 
-2.68437 105.842 17.2532 1.09577 6.42421 -178.422 -9.50222 10.1027 -8.70109 1.31173 8.63671 -16.3399 13.1155 -7.09239 -0.236277 0.0462048 0.000530889 0.662642 1.94592 -6.10698 0.733511 -0.272898 10.7754 0.575905 -1.60511 -5.35038 -2.70815 -28.5229 1.80837 -1.71804 -46.6995 -22.2181 -20.8833 -10.7814 40.3392 1.89916 2.79197 9.77589 -1.35583 38.819 5.29845 7.75374 27.8333 -38.6791 -1.56027 3.83371 25.2919 4.80481 -25.0581 8.6485 0.480531 14.6282 6.15763 9.48733 -2.75573 10.9388 5.42907 -13.4252 -5.4019 0.284018 -1.39529e-009 8.75238e-006 -1.47271e-008 
-2.69235 105.842 17.2577 1.0952 6.4714 -178.417 -9.51877 10.143 -8.72642 1.32827 8.65852 -16.3091 13.1118 -7.09091 -0.236276 0.0462048 0.000530889 0.662642 1.94118 -6.0423 0.700585 -0.274627 10.7506 0.54749 -1.64548 -5.31998 -2.69 -28.4865 1.83049 -1.78729 -46.6759 -22.2741 -20.839 -10.7515 40.3863 1.89798 2.6724 9.7839 -1.28034 38.8329 5.30834 7.77191 27.6685 -38.5455 -1.7911 3.87838 25.2467 5.21099 -24.8202 8.71955 0.201145 14.6204 6.19232 9.48019 -2.74799 10.9603 5.42846 -13.4372 -5.41165 0.282998 -1.39529e-009 8.75238e-006 -1.47271e-008 
-2.70647 105.843 17.2678 1.09872 6.49098 -178.384 -9.5291 10.1629 -8.7472 1.35002 8.66588 -16.3114 13.0978 -7.08124 -0.236271 0.0462048 0.000530889 0.662642 1.95141 -5.92425 0.654349 -0.311556 10.6132 0.510728 -1.67411 -5.28629 -2.72625 -28.4572 1.85147 -1.85226 -46.6236 -22.2996 -20.7947 -10.7859 40.3854 1.9896 2.5865 9.78884 -1.27675 38.8388 5.31542 7.78597 27.5255 -38.418 -1.95576 3.9367 25.1667 5.47404 -24.6935 8.76391 0.0185916 14.6181 6.17419 9.46927 -2.73224 11.0025 5.40078 -13.4451 -5.42964 0.28105 -1.39529e-009 8.75238e-006 -1.47271e-008 
-2.72548 105.844 17.2815 1.1089 6.48292 -178.391 -9.53861 10.1447 -8.75468 1.36335 8.66347 -16.3026 13.0834 -7.06129 -0.23707 0.0462048 0.000530889 0.662642 1.99223 -5.75679 0.626321 -0.397493 10.3768 0.498269 -1.7528 -5.21927 -2.78528 -28.476 1.85738 -1.8665 -46.531 -22.3193 -20.7937 -10.8554 40.5155 2.11759 2.38396 9.80204 -1.14346 38.8114 5.30753 7.77574 27.4796 -38.3118 -1.97507 4.00413 25.072 5.51763 -24.7896 8.76132 0.00836521 14.6119 6.1336 9.45805 -2.71678 11.0521 5.40778 -13.449 -5.44876 0.278688 -1.39529e-009 8.75238e-006 -1.47271e-008 
-2.7465 105.844 17.2934 1.13405 6.46812 -178.453 -9.53785 10.1105 -8.74787 1.36562 8.65061 -16.2673 13.0808 -7.03084 -0.23994 0.0462048 0.000530889 0.662642 2.05304 -5.57191 0.620455 -0.506382 10.1269 0.512789 -1.85074 -5.16233 -2.77387 -28.513 1.84674 -1.8302 -46.4186 -22.2805 -20.839 -10.9712 40.5137 2.26844 2.27892 9.80897 -1.05467 38.7763 5.29056 7.74746 27.4894 -38.2542 -1.92871 4.04411 25.0061 5.55748 -24.8182 8.73919 0.107738 14.6148 6.10714 9.45921 -2.70981 11.097 5.46123 -13.4505 -5.46495 0.276086 -1.39529e-009 8.75238e-006 -1.47271e-008 
